<?xml version="1.0" encoding="utf-8"?>
<!-- Generator: Adobe Illustrator 15.0.0, SVG Export Plug-In  -->
<!DOCTYPE svg PUBLIC "-//W3C//DTD SVG 1.1//EN" "http://www.w3.org/Graphics/SVG/1.1/DTD/svg11.dtd" [
	<!ENTITY ns_flows "http://ns.adobe.com/Flows/1.0/">
]>
<svg version="1.1"
	 xmlns="http://www.w3.org/2000/svg" xmlns:xlink="http://www.w3.org/1999/xlink" xmlns:a="http://ns.adobe.com/AdobeSVGViewerExtensions/3.0/"
	 x="0px" y="0px" width="100px" height="26px" viewBox="24.003 0 100 26"
	 overflow="visible" enable-background="new 24.003 0 100 26" xml:space="preserve">
<defs>
</defs>
<polyline fill="#BE202E" stroke="#8D191D" stroke-width="5" stroke-miterlimit="10" points="1199.003,3.202 1173.993,23.202 
	1148.984,3.202 1123.979,23.202 1098.974,3.202 1073.97,23.202 1048.965,3.202 1023.963,23.202 998.962,3.202 973.964,23.202 
	948.962,3.202 923.96,23.202 898.958,3.202 873.957,23.202 848.955,3.202 823.955,23.202 798.952,3.202 773.951,23.202 
	748.952,3.202 723.953,23.202 698.954,3.202 673.955,23.202 648.954,3.202 623.955,23.202 598.958,3.202 573.959,23.202 
	548.961,3.202 523.966,23.202 498.965,3.202 473.971,23.202 448.97,3.202 423.977,23.202 398.979,3.202 373.984,23.202 
	348.986,3.202 323.987,23.202 298.986,3.202 273.988,23.202 248.989,3.202 223.99,23.202 198.991,3.202 173.993,23.202 
	148.994,3.202 123.996,23.202 98.996,3.202 73.999,23.202 49,3.202 24.002,23.202 1.564,41.202 "/>
</svg>
